<?xml version="1.0" encoding="UTF-8" standalone="no"?>
<!-- Created with Inkscape (http://www.inkscape.org/) -->

<svg
   width="150"
   height="150"
   viewBox="0 0 39.687499 39.6875"
   version="1.1"
   id="svg2652"
   inkscape:version="1.2.2 (732a01da63, 2022-12-09)"
   sodipodi:docname="logo.svg"
   xmlns:inkscape="http://www.inkscape.org/namespaces/inkscape"
   xmlns:sodipodi="http://sodipodi.sourceforge.net/DTD/sodipodi-0.dtd"
   xmlns="http://www.w3.org/2000/svg"
   xmlns:svg="http://www.w3.org/2000/svg">
  <sodipodi:namedview
     id="namedview2654"
     pagecolor="#505050"
     bordercolor="#eeeeee"
     borderopacity="1"
     inkscape:showpageshadow="0"
     inkscape:pageopacity="0"
     inkscape:pagecheckerboard="0"
     inkscape:deskcolor="#505050"
     inkscape:document-units="mm"
     showgrid="false"
     inkscape:zoom="1.6819304"
     inkscape:cx="67.779261"
     inkscape:cy="105.83078"
     inkscape:window-width="1366"
     inkscape:window-height="705"
     inkscape:window-x="-8"
     inkscape:window-y="-8"
     inkscape:window-maximized="1"
     inkscape:current-layer="g2302" />
  <defs
     id="defs2649" />
  <g
     inkscape:label="Camada 1"
     inkscape:groupmode="layer"
     id="layer1">
    <g
       id="g2302"
       transform="matrix(0.15894321,0,0,0.15894321,-1476.5053,-245.45083)"
       style="fill:#fafafa;fill-opacity:1">
      <path
         id="path2261"
         style="color:#000000;font-style:normal;font-variant:normal;font-weight:normal;font-stretch:normal;font-size:medium;line-height:normal;font-family:sans-serif;font-variant-ligatures:normal;font-variant-position:normal;font-variant-caps:normal;font-variant-numeric:normal;font-variant-alternates:normal;font-variant-east-asian:normal;font-feature-settings:normal;font-variation-settings:normal;text-indent:0;text-align:start;text-decoration:none;text-decoration-line:none;text-decoration-style:solid;text-decoration-color:#000000;letter-spacing:normal;word-spacing:normal;text-transform:none;writing-mode:lr-tb;direction:ltr;text-orientation:mixed;dominant-baseline:auto;baseline-shift:baseline;text-anchor:start;white-space:normal;shape-padding:0;shape-margin:0;inline-size:0;clip-rule:nonzero;display:inline;overflow:visible;visibility:visible;isolation:auto;mix-blend-mode:normal;color-interpolation:sRGB;color-interpolation-filters:linearRGB;solid-color:#000000;solid-opacity:1;vector-effect:none;fill:#e5e5e5;fill-opacity:1;fill-rule:nonzero;stroke:none;stroke-width:0.232083;stroke-linecap:round;stroke-linejoin:round;stroke-miterlimit:4;stroke-dasharray:none;stroke-dashoffset:0;stroke-opacity:1;color-rendering:auto;image-rendering:auto;shape-rendering:auto;text-rendering:auto;enable-background:accumulate;stop-color:#000000"
         d="m 9369.5715,1589.0615 c -44.2126,0 -80.0565,35.8439 -80.0565,80.0563 0,44.2126 35.8439,80.0566 80.0565,80.0566 29.6454,0 55.5276,-16.1161 69.365,-40.0642 2.1464,-4.8414 0.7224,-8.8094 -2.3279,-11.0839 l -14.0729,-10.393 c -4.0431,-2.5384 -9.7719,-0.9521 -11.6488,3.3508 -7.8459,14.7941 -23.4039,24.872 -41.3154,24.872 -25.8116,0 -46.7381,-20.9268 -46.7381,-46.7383 0,-25.8114 20.9265,-46.7379 46.7381,-46.7379 17.8592,0 33.3784,10.0193 41.2461,24.7429 2.4939,4.972 8.3362,5.8628 13.0297,2.6015 l 12.9917,-9.6066 c 3.2815,-2.9259 4.0931,-6.9654 2.3819,-10.4961 -13.7653,-24.2213 -39.7997,-40.5601 -69.6494,-40.5601 z"
         sodipodi:nodetypes="sssccccsssccccs" />
      <path
         id="path2263"
         style="color:#000000;font-style:normal;font-variant:normal;font-weight:normal;font-stretch:normal;font-size:medium;line-height:normal;font-family:sans-serif;font-variant-ligatures:normal;font-variant-position:normal;font-variant-caps:normal;font-variant-numeric:normal;font-variant-alternates:normal;font-variant-east-asian:normal;font-feature-settings:normal;font-variation-settings:normal;text-indent:0;text-align:start;text-decoration:none;text-decoration-line:none;text-decoration-style:solid;text-decoration-color:#000000;letter-spacing:normal;word-spacing:normal;text-transform:none;writing-mode:lr-tb;direction:ltr;text-orientation:mixed;dominant-baseline:auto;baseline-shift:baseline;text-anchor:start;white-space:normal;shape-padding:0;shape-margin:0;inline-size:0;clip-rule:nonzero;display:inline;overflow:visible;visibility:visible;isolation:auto;mix-blend-mode:normal;color-interpolation:sRGB;color-interpolation-filters:linearRGB;solid-color:#000000;solid-opacity:1;vector-effect:none;fill:#e5e5e5;fill-opacity:1;fill-rule:nonzero;stroke:none;stroke-width:0.232083;stroke-linecap:round;stroke-linejoin:round;stroke-miterlimit:4;stroke-dasharray:none;stroke-dashoffset:0;stroke-opacity:1;color-rendering:auto;image-rendering:auto;shape-rendering:auto;text-rendering:auto;enable-background:accumulate;stop-color:#000000"
         d="m 9459.2707,1589.0613 c 0,0 -9.0342,0.3819 -13.3877,1.1153 -7.1961,1.5591 -8.5566,9.612 -5.0296,13.5693 0.035,0.039 0.07,0.078 0.1048,0.1175 3.8,4.2661 7.1502,8.9414 9.9765,13.9515 1.1373,2.2627 3.849,4.6139 7.6401,4.5702 0.2316,-0.01 0.4636,-0.01 0.6959,-0.01 25.7688,0 46.562,20.9743 46.6312,46.7268 v 0.1166 71.5046 c 0,4.9227 3.6552,8.4469 8.3203,8.4469 h 16.6561 c 3.3036,0 8.3328,-2.406 8.3328,-8.4469 v -71.6214 -0.1277 c -0.069,-44.1537 -35.7698,-79.9173 -79.9397,-79.9173 z"
         sodipodi:nodetypes="cccsccsscsssscssc" />
    </g>
  </g>
</svg>
